<?xml version="1.0" encoding="UTF-8" standalone="no"?>
<!DOCTYPE svg PUBLIC "-//W3C//DTD SVG 1.1//EN"
 "http://www.w3.org/Graphics/SVG/1.1/DTD/svg11.dtd">
<!-- Generated by graphviz version 2.50.0 (20211204.2007)
 -->
<!-- Pages: 1 -->
<svg width="668pt" height="455pt"
 viewBox="0.00 0.00 668.00 455.00" xmlns="http://www.w3.org/2000/svg" xmlns:xlink="http://www.w3.org/1999/xlink">
<g id="graph0" class="graph" transform="scale(1 1) rotate(0) translate(4 451)">
<polygon fill="white" stroke="transparent" points="-4,4 -4,-451 664,-451 664,4 -4,4"/>
<!-- forex -->
<g id="node1" class="node">
<title>forex</title>
<polygon fill="none" stroke="black" points="21,-128.5 21,-156.5 172,-156.5 172,-128.5 21,-128.5"/>
<text text-anchor="start" x="76.5" y="-139.7" font-family="Helvetica,sans-Serif" font-weight="bold" font-size="16.00">forex</text>
<polygon fill="none" stroke="black" points="21,-103.5 21,-128.5 172,-128.5 172,-103.5 21,-103.5"/>
<text text-anchor="start" x="26" y="-113.3" font-family="Helvetica,sans-Serif" text-decoration="underline" font-size="14.00">id</text>
<text text-anchor="start" x="37" y="-113.3" font-family="Helvetica,sans-Serif" font-size="14.00"> [INTEGER]</text>
<polygon fill="none" stroke="black" points="21,-78.5 21,-103.5 172,-103.5 172,-78.5 21,-78.5"/>
<text text-anchor="start" x="26" y="-88.3" font-family="Helvetica,sans-Serif" font-size="14.00">date</text>
<text text-anchor="start" x="53" y="-88.3" font-family="Helvetica,sans-Serif" font-size="14.00"> [DATE]</text>
<polygon fill="none" stroke="black" points="21,-53.5 21,-78.5 172,-78.5 172,-53.5 21,-53.5"/>
<text text-anchor="start" x="26" y="-63.3" font-family="Helvetica,sans-Serif" font-size="14.00">code</text>
<text text-anchor="start" x="56" y="-63.3" font-family="Helvetica,sans-Serif" font-size="14.00"> [VARCHAR]</text>
<polygon fill="none" stroke="black" points="21,-28.5 21,-53.5 172,-53.5 172,-28.5 21,-28.5"/>
<text text-anchor="start" x="26" y="-38.3" font-family="Helvetica,sans-Serif" font-size="14.00">units_per_usd</text>
<text text-anchor="start" x="111" y="-38.3" font-family="Helvetica,sans-Serif" font-size="14.00"> [FLOAT]</text>
<polygon fill="none" stroke="black" points="21,-3.5 21,-28.5 172,-28.5 172,-3.5 21,-3.5"/>
<text text-anchor="start" x="26" y="-13.3" font-family="Helvetica,sans-Serif" font-size="14.00">usd_per_unit</text>
<text text-anchor="start" x="105" y="-13.3" font-family="Helvetica,sans-Serif" font-size="14.00"> [FLOAT]</text>
</g>
<!-- vendor_brand -->
<g id="node2" class="node">
<title>vendor_brand</title>
<polygon fill="none" stroke="black" points="273.5,-315.5 273.5,-343.5 416.5,-343.5 416.5,-315.5 273.5,-315.5"/>
<text text-anchor="start" x="291.5" y="-326.7" font-family="Helvetica,sans-Serif" font-weight="bold" font-size="16.00">vendor_brand</text>
<polygon fill="none" stroke="black" points="273.5,-290.5 273.5,-315.5 416.5,-315.5 416.5,-290.5 273.5,-290.5"/>
<text text-anchor="start" x="278.5" y="-300.3" font-family="Helvetica,sans-Serif" text-decoration="underline" font-size="14.00">vendor_id</text>
<text text-anchor="start" x="338.5" y="-300.3" font-family="Helvetica,sans-Serif" font-size="14.00"> [INTEGER]</text>
<polygon fill="none" stroke="black" points="273.5,-265.5 273.5,-290.5 416.5,-290.5 416.5,-265.5 273.5,-265.5"/>
<text text-anchor="start" x="278.5" y="-275.3" font-family="Helvetica,sans-Serif" text-decoration="underline" font-size="14.00">brand_id</text>
<text text-anchor="start" x="331.5" y="-275.3" font-family="Helvetica,sans-Serif" font-size="14.00"> [INTEGER]</text>
</g>
<!-- vendor -->
<g id="node3" class="node">
<title>vendor</title>
<polygon fill="none" stroke="black" points="8,-414.5 8,-442.5 184,-442.5 184,-414.5 8,-414.5"/>
<text text-anchor="start" x="69" y="-425.7" font-family="Helvetica,sans-Serif" font-weight="bold" font-size="16.00">vendor</text>
<polygon fill="none" stroke="black" points="8,-389.5 8,-414.5 184,-414.5 184,-389.5 8,-389.5"/>
<text text-anchor="start" x="13" y="-399.3" font-family="Helvetica,sans-Serif" text-decoration="underline" font-size="14.00">id</text>
<text text-anchor="start" x="24" y="-399.3" font-family="Helvetica,sans-Serif" font-size="14.00"> [INTEGER]</text>
<polygon fill="none" stroke="black" points="8,-364.5 8,-389.5 184,-389.5 184,-364.5 8,-364.5"/>
<text text-anchor="start" x="13" y="-374.3" font-family="Helvetica,sans-Serif" font-size="14.00">name</text>
<text text-anchor="start" x="48" y="-374.3" font-family="Helvetica,sans-Serif" font-size="14.00"> [VARCHAR]</text>
<polygon fill="none" stroke="black" points="8,-339.5 8,-364.5 184,-364.5 184,-339.5 8,-339.5"/>
<text text-anchor="start" x="13" y="-349.3" font-family="Helvetica,sans-Serif" font-size="14.00">currency</text>
<text text-anchor="start" x="65" y="-349.3" font-family="Helvetica,sans-Serif" font-size="14.00"> [VARCHAR]</text>
<polygon fill="none" stroke="black" points="8,-314.5 8,-339.5 184,-339.5 184,-314.5 8,-314.5"/>
<text text-anchor="start" x="13" y="-324.3" font-family="Helvetica,sans-Serif" font-size="14.00">discount_code</text>
<text text-anchor="start" x="101" y="-324.3" font-family="Helvetica,sans-Serif" font-size="14.00"> [VARCHAR]</text>
<polygon fill="none" stroke="black" points="8,-289.5 8,-314.5 184,-314.5 184,-289.5 8,-289.5"/>
<text text-anchor="start" x="13" y="-299.3" font-family="Helvetica,sans-Serif" font-size="14.00">discount</text>
<text text-anchor="start" x="64" y="-299.3" font-family="Helvetica,sans-Serif" font-size="14.00"> [FLOAT]</text>
</g>
<!-- vendor&#45;&#45;vendor_brand -->
<g id="edge1" class="edge">
<title>vendor&#45;&#45;vendor_brand</title>
<path fill="none" stroke="#7f7f7f" stroke-dasharray="5,2" d="M192.3,-342.53C216.28,-336.5 241.75,-330.09 264.82,-324.29"/>
<text text-anchor="start" x="233.82" y="-313.09" font-family="Times,serif" font-size="14.00">{0,1}</text>
<text text-anchor="start" x="192.3" y="-331.33" font-family="Times,serif" font-size="14.00">0..N</text>
</g>
<!-- quote -->
<g id="node4" class="node">
<title>quote</title>
<polygon fill="none" stroke="black" points="505.5,-354.5 505.5,-382.5 652.5,-382.5 652.5,-354.5 505.5,-354.5"/>
<text text-anchor="start" x="557" y="-365.7" font-family="Helvetica,sans-Serif" font-weight="bold" font-size="16.00">quote</text>
<polygon fill="none" stroke="black" points="505.5,-329.5 505.5,-354.5 652.5,-354.5 652.5,-329.5 505.5,-329.5"/>
<text text-anchor="start" x="510.5" y="-339.3" font-family="Helvetica,sans-Serif" text-decoration="underline" font-size="14.00">id</text>
<text text-anchor="start" x="521.5" y="-339.3" font-family="Helvetica,sans-Serif" font-size="14.00"> [INTEGER]</text>
<polygon fill="none" stroke="black" points="505.5,-304.5 505.5,-329.5 652.5,-329.5 652.5,-304.5 505.5,-304.5"/>
<text text-anchor="start" x="510.5" y="-314.3" font-family="Helvetica,sans-Serif" font-size="14.00">date_created</text>
<text text-anchor="start" x="589.5" y="-314.3" font-family="Helvetica,sans-Serif" font-size="14.00"> [DATE]</text>
<polygon fill="none" stroke="black" points="505.5,-279.5 505.5,-304.5 652.5,-304.5 652.5,-279.5 505.5,-279.5"/>
<text text-anchor="start" x="510.5" y="-289.3" font-family="Helvetica,sans-Serif" font-size="14.00">product_id</text>
<text text-anchor="start" x="574.5" y="-289.3" font-family="Helvetica,sans-Serif" font-size="14.00"> [INTEGER]</text>
<polygon fill="none" stroke="black" points="505.5,-254.5 505.5,-279.5 652.5,-279.5 652.5,-254.5 505.5,-254.5"/>
<text text-anchor="start" x="510.5" y="-264.3" font-family="Helvetica,sans-Serif" font-size="14.00">vendor_id</text>
<text text-anchor="start" x="570.5" y="-264.3" font-family="Helvetica,sans-Serif" font-size="14.00"> [INTEGER]</text>
<polygon fill="none" stroke="black" points="505.5,-229.5 505.5,-254.5 652.5,-254.5 652.5,-229.5 505.5,-229.5"/>
<text text-anchor="start" x="510.5" y="-239.3" font-family="Helvetica,sans-Serif" font-size="14.00">currency</text>
<text text-anchor="start" x="562.5" y="-239.3" font-family="Helvetica,sans-Serif" font-size="14.00"> [VARCHAR]</text>
<polygon fill="none" stroke="black" points="505.5,-204.5 505.5,-229.5 652.5,-229.5 652.5,-204.5 505.5,-204.5"/>
<text text-anchor="start" x="510.5" y="-214.3" font-family="Helvetica,sans-Serif" font-size="14.00">value</text>
<text text-anchor="start" x="543.5" y="-214.3" font-family="Helvetica,sans-Serif" font-size="14.00"> [FLOAT]</text>
<polygon fill="none" stroke="black" points="505.5,-179.5 505.5,-204.5 652.5,-204.5 652.5,-179.5 505.5,-179.5"/>
<text text-anchor="start" x="510.5" y="-189.3" font-family="Helvetica,sans-Serif" font-size="14.00">discount</text>
<text text-anchor="start" x="561.5" y="-189.3" font-family="Helvetica,sans-Serif" font-size="14.00"> [FLOAT]</text>
</g>
<!-- vendor&#45;&#45;quote -->
<g id="edge2" class="edge">
<title>vendor&#45;&#45;quote</title>
<path fill="none" stroke="#7f7f7f" stroke-dasharray="5,2" d="M192.17,-374.05C258.19,-376.77 347.64,-375.39 424,-356.5 448.62,-350.41 473.91,-340.02 496.69,-328.89"/>
<text text-anchor="start" x="465.69" y="-317.69" font-family="Times,serif" font-size="14.00">{0,1}</text>
<text text-anchor="start" x="192.17" y="-362.85" font-family="Times,serif" font-size="14.00">0..N</text>
</g>
<!-- brand -->
<g id="node5" class="node">
<title>brand</title>
<polygon fill="none" stroke="black" points="35,-233.5 35,-261.5 158,-261.5 158,-233.5 35,-233.5"/>
<text text-anchor="start" x="74" y="-244.7" font-family="Helvetica,sans-Serif" font-weight="bold" font-size="16.00">brand</text>
<polygon fill="none" stroke="black" points="35,-208.5 35,-233.5 158,-233.5 158,-208.5 35,-208.5"/>
<text text-anchor="start" x="40" y="-218.3" font-family="Helvetica,sans-Serif" text-decoration="underline" font-size="14.00">id</text>
<text text-anchor="start" x="51" y="-218.3" font-family="Helvetica,sans-Serif" font-size="14.00"> [INTEGER]</text>
<polygon fill="none" stroke="black" points="35,-183.5 35,-208.5 158,-208.5 158,-183.5 35,-183.5"/>
<text text-anchor="start" x="40" y="-193.3" font-family="Helvetica,sans-Serif" font-size="14.00">name</text>
<text text-anchor="start" x="75" y="-193.3" font-family="Helvetica,sans-Serif" font-size="14.00"> [VARCHAR]</text>
</g>
<!-- brand&#45;&#45;vendor_brand -->
<g id="edge3" class="edge">
<title>brand&#45;&#45;vendor_brand</title>
<path fill="none" stroke="#7f7f7f" stroke-dasharray="5,2" d="M165.66,-245.34C196.43,-255.58 232.89,-267.71 264.76,-278.31"/>
<text text-anchor="start" x="233.76" y="-267.11" font-family="Times,serif" font-size="14.00">{0,1}</text>
<text text-anchor="start" x="165.66" y="-234.14" font-family="Times,serif" font-size="14.00">0..N</text>
</g>
<!-- product -->
<g id="node6" class="node">
<title>product</title>
<polygon fill="none" stroke="black" points="276.5,-210.5 276.5,-238.5 412.5,-238.5 412.5,-210.5 276.5,-210.5"/>
<text text-anchor="start" x="314.5" y="-221.7" font-family="Helvetica,sans-Serif" font-weight="bold" font-size="16.00">product</text>
<polygon fill="none" stroke="black" points="276.5,-185.5 276.5,-210.5 412.5,-210.5 412.5,-185.5 276.5,-185.5"/>
<text text-anchor="start" x="281.5" y="-195.3" font-family="Helvetica,sans-Serif" text-decoration="underline" font-size="14.00">id</text>
<text text-anchor="start" x="292.5" y="-195.3" font-family="Helvetica,sans-Serif" font-size="14.00"> [INTEGER]</text>
<polygon fill="none" stroke="black" points="276.5,-160.5 276.5,-185.5 412.5,-185.5 412.5,-160.5 276.5,-160.5"/>
<text text-anchor="start" x="281.5" y="-170.3" font-family="Helvetica,sans-Serif" font-size="14.00">name</text>
<text text-anchor="start" x="316.5" y="-170.3" font-family="Helvetica,sans-Serif" font-size="14.00"> [VARCHAR]</text>
<polygon fill="none" stroke="black" points="276.5,-135.5 276.5,-160.5 412.5,-160.5 412.5,-135.5 276.5,-135.5"/>
<text text-anchor="start" x="281.5" y="-145.3" font-family="Helvetica,sans-Serif" font-size="14.00">brand_id</text>
<text text-anchor="start" x="334.5" y="-145.3" font-family="Helvetica,sans-Serif" font-size="14.00"> [INTEGER]</text>
</g>
<!-- brand&#45;&#45;product -->
<g id="edge4" class="edge">
<title>brand&#45;&#45;product</title>
<path fill="none" stroke="#7f7f7f" stroke-dasharray="5,2" d="M165.66,-212.75C197.57,-208.22 235.6,-202.82 268.29,-198.18"/>
<text text-anchor="start" x="237.29" y="-186.98" font-family="Times,serif" font-size="14.00">{0,1}</text>
<text text-anchor="start" x="165.66" y="-201.55" font-family="Times,serif" font-size="14.00">0..N</text>
</g>
<!-- product&#45;&#45;quote -->
<g id="edge5" class="edge">
<title>product&#45;&#45;quote</title>
<path fill="none" stroke="#7f7f7f" stroke-dasharray="5,2" d="M420.5,-217.89C444.86,-227.76 471.99,-238.75 496.75,-248.78"/>
<text text-anchor="start" x="465.75" y="-237.58" font-family="Times,serif" font-size="14.00">{0,1}</text>
<text text-anchor="start" x="420.5" y="-206.69" font-family="Times,serif" font-size="14.00">0..N</text>
</g>
</g>
</svg>
